<mxfile host="Electron" modified="2024-07-26T09:07:24.117Z" agent="Mozilla/5.0 (Windows NT 10.0; Win64; x64) AppleWebKit/537.36 (KHTML, like Gecko) draw.io/24.6.4 Chrome/124.0.6367.207 Electron/30.0.6 Safari/537.36" etag="Fj3gtSjuSGFli2zVqJqF" version="24.6.4" type="device" pages="2">
  <diagram name="webapp-typical" id="LOSVVjc7a6ait5A3UJ2f">
    <mxGraphModel dx="1323" dy="795" grid="1" gridSize="10" guides="1" tooltips="1" connect="1" arrows="1" fold="1" page="1" pageScale="1" pageWidth="850" pageHeight="1100" math="0" shadow="0">
      <root>
        <mxCell id="0" />
        <mxCell id="1" parent="0" />
        <mxCell id="9SCNQz-Z5Cvlj46xDFkQ-402" style="edgeStyle=orthogonalEdgeStyle;rounded=0;orthogonalLoop=1;jettySize=auto;html=1;entryX=0;entryY=0.75;entryDx=0;entryDy=0;" edge="1" parent="1" source="9SCNQz-Z5Cvlj46xDFkQ-5" target="9SCNQz-Z5Cvlj46xDFkQ-367">
          <mxGeometry relative="1" as="geometry" />
        </mxCell>
        <mxCell id="9SCNQz-Z5Cvlj46xDFkQ-5" value="" style="rounded=0;whiteSpace=wrap;html=1;" vertex="1" parent="1">
          <mxGeometry x="1050" y="881.12" width="140" height="500" as="geometry" />
        </mxCell>
        <mxCell id="9SCNQz-Z5Cvlj46xDFkQ-6" value="GW Snet" style="rounded=0;whiteSpace=wrap;html=1;" vertex="1" parent="1">
          <mxGeometry x="1070" y="940" width="100" height="60" as="geometry" />
        </mxCell>
        <mxCell id="9SCNQz-Z5Cvlj46xDFkQ-7" value="AZ FW Snet" style="rounded=0;whiteSpace=wrap;html=1;" vertex="1" parent="1">
          <mxGeometry x="1070" y="1070" width="100" height="60" as="geometry" />
        </mxCell>
        <mxCell id="9SCNQz-Z5Cvlj46xDFkQ-8" value="Shared services" style="rounded=0;whiteSpace=wrap;html=1;" vertex="1" parent="1">
          <mxGeometry x="1070" y="1200" width="100" height="60" as="geometry" />
        </mxCell>
        <mxCell id="9SCNQz-Z5Cvlj46xDFkQ-9" value="" style="image;aspect=fixed;html=1;points=[];align=center;fontSize=12;image=img/lib/azure2/networking/Subnet.svg;" vertex="1" parent="1">
          <mxGeometry x="1065" y="1052.04" width="30" height="17.96" as="geometry" />
        </mxCell>
        <mxCell id="9SCNQz-Z5Cvlj46xDFkQ-10" value="" style="image;aspect=fixed;html=1;points=[];align=center;fontSize=12;image=img/lib/azure2/networking/Subnet.svg;" vertex="1" parent="1">
          <mxGeometry x="1070" y="1182.04" width="30" height="17.96" as="geometry" />
        </mxCell>
        <mxCell id="9SCNQz-Z5Cvlj46xDFkQ-11" value="" style="image;aspect=fixed;html=1;points=[];align=center;fontSize=12;image=img/lib/azure2/networking/Subnet.svg;" vertex="1" parent="1">
          <mxGeometry x="1065" y="1285.6599999999999" width="30" height="17.96" as="geometry" />
        </mxCell>
        <mxCell id="9SCNQz-Z5Cvlj46xDFkQ-12" value="" style="image;aspect=fixed;html=1;points=[];align=center;fontSize=12;image=img/lib/azure2/networking/Virtual_Networks.svg;" vertex="1" parent="1">
          <mxGeometry x="1050" y="881.12" width="50" height="29.85" as="geometry" />
        </mxCell>
        <mxCell id="9SCNQz-Z5Cvlj46xDFkQ-386" style="edgeStyle=orthogonalEdgeStyle;rounded=0;orthogonalLoop=1;jettySize=auto;html=1;entryX=0.5;entryY=0;entryDx=0;entryDy=0;" edge="1" parent="1" source="9SCNQz-Z5Cvlj46xDFkQ-13" target="9SCNQz-Z5Cvlj46xDFkQ-5">
          <mxGeometry relative="1" as="geometry" />
        </mxCell>
        <mxCell id="9SCNQz-Z5Cvlj46xDFkQ-13" value="" style="image;aspect=fixed;html=1;points=[];align=center;fontSize=12;image=img/lib/azure2/security/Key_Vaults.svg;" vertex="1" parent="1">
          <mxGeometry x="792.28" y="500" width="37.72" height="37.72" as="geometry" />
        </mxCell>
        <mxCell id="9SCNQz-Z5Cvlj46xDFkQ-388" style="edgeStyle=orthogonalEdgeStyle;rounded=0;orthogonalLoop=1;jettySize=auto;html=1;" edge="1" parent="1" source="9SCNQz-Z5Cvlj46xDFkQ-14">
          <mxGeometry relative="1" as="geometry">
            <mxPoint x="1120" y="856" as="targetPoint" />
          </mxGeometry>
        </mxCell>
        <mxCell id="9SCNQz-Z5Cvlj46xDFkQ-14" value="" style="image;aspect=fixed;html=1;points=[];align=center;fontSize=12;image=img/lib/azure2/databases/SQL_Server.svg;" vertex="1" parent="1">
          <mxGeometry x="790.53" y="580" width="48" height="48" as="geometry" />
        </mxCell>
        <mxCell id="9SCNQz-Z5Cvlj46xDFkQ-389" style="edgeStyle=orthogonalEdgeStyle;rounded=0;orthogonalLoop=1;jettySize=auto;html=1;" edge="1" parent="1" source="9SCNQz-Z5Cvlj46xDFkQ-15">
          <mxGeometry relative="1" as="geometry">
            <mxPoint x="1120" y="880" as="targetPoint" />
          </mxGeometry>
        </mxCell>
        <mxCell id="9SCNQz-Z5Cvlj46xDFkQ-15" value="" style="image;aspect=fixed;html=1;points=[];align=center;fontSize=12;image=img/lib/azure2/storage/Storage_Accounts.svg;" vertex="1" parent="1">
          <mxGeometry x="790.53" y="695.0000000000001" width="41.5" height="33.2" as="geometry" />
        </mxCell>
        <mxCell id="9SCNQz-Z5Cvlj46xDFkQ-393" style="edgeStyle=orthogonalEdgeStyle;rounded=0;orthogonalLoop=1;jettySize=auto;html=1;entryX=0.5;entryY=0;entryDx=0;entryDy=0;" edge="1" parent="1" source="9SCNQz-Z5Cvlj46xDFkQ-17" target="9SCNQz-Z5Cvlj46xDFkQ-5">
          <mxGeometry relative="1" as="geometry" />
        </mxCell>
        <mxCell id="9SCNQz-Z5Cvlj46xDFkQ-17" value="" style="image;aspect=fixed;html=1;points=[];align=center;fontSize=12;image=img/lib/azure2/integration/Service_Bus.svg;" vertex="1" parent="1">
          <mxGeometry x="786.78" y="900.0699999999999" width="45.25" height="39.93" as="geometry" />
        </mxCell>
        <mxCell id="9SCNQz-Z5Cvlj46xDFkQ-18" value="" style="image;aspect=fixed;html=1;points=[];align=center;fontSize=12;image=img/lib/azure2/other/Local_Network_Gateways.svg;" vertex="1" parent="1">
          <mxGeometry x="1142" y="972" width="28" height="28" as="geometry" />
        </mxCell>
        <mxCell id="9SCNQz-Z5Cvlj46xDFkQ-19" value="" style="image;sketch=0;aspect=fixed;html=1;points=[];align=center;fontSize=12;image=img/lib/mscae/Azure_Firewall.svg;" vertex="1" parent="1">
          <mxGeometry x="1145" y="1105" width="25" height="25" as="geometry" />
        </mxCell>
        <mxCell id="9SCNQz-Z5Cvlj46xDFkQ-20" value="" style="image;aspect=fixed;html=1;points=[];align=center;fontSize=12;image=img/lib/azure2/identity/Azure_Active_Directory.svg;" vertex="1" parent="1">
          <mxGeometry x="784.4000000000002" y="1130" width="45.87" height="41.93" as="geometry" />
        </mxCell>
        <mxCell id="9SCNQz-Z5Cvlj46xDFkQ-21" value="" style="image;aspect=fixed;html=1;points=[];align=center;fontSize=12;image=img/lib/azure2/networking/Web_Application_Firewall_Policies_WAF.svg;" vertex="1" parent="1">
          <mxGeometry x="1070" y="980" width="20" height="20" as="geometry" />
        </mxCell>
        <mxCell id="9SCNQz-Z5Cvlj46xDFkQ-24" value="" style="sketch=0;pointerEvents=1;shadow=0;dashed=0;html=1;strokeColor=none;fillColor=#505050;labelPosition=center;verticalLabelPosition=bottom;verticalAlign=top;outlineConnect=0;align=center;shape=mxgraph.office.users.user_external;" vertex="1" parent="1">
          <mxGeometry x="580" y="1280" width="40" height="40" as="geometry" />
        </mxCell>
        <mxCell id="9SCNQz-Z5Cvlj46xDFkQ-34" value="" style="endArrow=classic;startArrow=classic;html=1;rounded=0;entryX=0.567;entryY=-0.074;entryDx=0;entryDy=0;entryPerimeter=0;" edge="1" parent="1" source="9SCNQz-Z5Cvlj46xDFkQ-20" target="9SCNQz-Z5Cvlj46xDFkQ-77">
          <mxGeometry width="50" height="50" relative="1" as="geometry">
            <mxPoint x="820" y="760" as="sourcePoint" />
            <mxPoint x="1050" y="750" as="targetPoint" />
          </mxGeometry>
        </mxCell>
        <mxCell id="9SCNQz-Z5Cvlj46xDFkQ-41" value="Jump Server" style="rounded=0;whiteSpace=wrap;html=1;" vertex="1" parent="1">
          <mxGeometry x="1070" y="1303.62" width="100" height="60" as="geometry" />
        </mxCell>
        <mxCell id="9SCNQz-Z5Cvlj46xDFkQ-42" value="" style="image;aspect=fixed;html=1;points=[];align=center;fontSize=12;image=img/lib/azure2/networking/Subnet.svg;" vertex="1" parent="1">
          <mxGeometry x="1065" y="922.04" width="30" height="17.96" as="geometry" />
        </mxCell>
        <mxCell id="9SCNQz-Z5Cvlj46xDFkQ-43" value="" style="endArrow=classic;html=1;rounded=0;entryX=-0.028;entryY=0.417;entryDx=0;entryDy=0;entryPerimeter=0;" edge="1" parent="1" source="9SCNQz-Z5Cvlj46xDFkQ-24" target="9SCNQz-Z5Cvlj46xDFkQ-77">
          <mxGeometry width="50" height="50" relative="1" as="geometry">
            <mxPoint x="990" y="720" as="sourcePoint" />
            <mxPoint x="1050" y="750" as="targetPoint" />
          </mxGeometry>
        </mxCell>
        <mxCell id="9SCNQz-Z5Cvlj46xDFkQ-44" value="" style="rounded=0;whiteSpace=wrap;html=1;" vertex="1" parent="1">
          <mxGeometry x="1320" y="500" width="540" height="500" as="geometry" />
        </mxCell>
        <mxCell id="9SCNQz-Z5Cvlj46xDFkQ-392" style="edgeStyle=orthogonalEdgeStyle;rounded=0;orthogonalLoop=1;jettySize=auto;html=1;entryX=0.5;entryY=0;entryDx=0;entryDy=0;" edge="1" parent="1" source="9SCNQz-Z5Cvlj46xDFkQ-45" target="9SCNQz-Z5Cvlj46xDFkQ-5">
          <mxGeometry relative="1" as="geometry" />
        </mxCell>
        <mxCell id="9SCNQz-Z5Cvlj46xDFkQ-45" value="" style="image;aspect=fixed;html=1;points=[];align=center;fontSize=12;image=img/lib/azure2/containers/Container_Registries.svg;" vertex="1" parent="1">
          <mxGeometry x="784.4" y="803.11" width="50" height="44.85" as="geometry" />
        </mxCell>
        <mxCell id="9SCNQz-Z5Cvlj46xDFkQ-48" value="" style="image;aspect=fixed;html=1;points=[];align=center;fontSize=12;image=img/lib/azure2/networking/Virtual_Networks.svg;" vertex="1" parent="1">
          <mxGeometry x="1320" y="500" width="50" height="29.85" as="geometry" />
        </mxCell>
        <mxCell id="9SCNQz-Z5Cvlj46xDFkQ-53" value="" style="rounded=0;whiteSpace=wrap;html=1;" vertex="1" parent="1">
          <mxGeometry x="1430" y="555" width="340" height="185" as="geometry" />
        </mxCell>
        <mxCell id="9SCNQz-Z5Cvlj46xDFkQ-54" value="" style="image;aspect=fixed;html=1;points=[];align=center;fontSize=12;image=img/lib/azure2/networking/Subnet.svg;" vertex="1" parent="1">
          <mxGeometry x="1430" y="557.24" width="54.71" height="32.76" as="geometry" />
        </mxCell>
        <mxCell id="9SCNQz-Z5Cvlj46xDFkQ-56" value="" style="rounded=0;whiteSpace=wrap;html=1;" vertex="1" parent="1">
          <mxGeometry x="1430" y="770" width="340" height="185" as="geometry" />
        </mxCell>
        <mxCell id="9SCNQz-Z5Cvlj46xDFkQ-57" value="" style="image;aspect=fixed;html=1;points=[];align=center;fontSize=12;image=img/lib/azure2/networking/Subnet.svg;" vertex="1" parent="1">
          <mxGeometry x="1430" y="780" width="54.71" height="32.76" as="geometry" />
        </mxCell>
        <mxCell id="9SCNQz-Z5Cvlj46xDFkQ-58" value="" style="image;aspect=fixed;html=1;points=[];align=center;fontSize=12;image=img/lib/azure2/app_services/App_Service_Plans.svg;" vertex="1" parent="1">
          <mxGeometry x="1500" y="608" width="64" height="64" as="geometry" />
        </mxCell>
        <mxCell id="9SCNQz-Z5Cvlj46xDFkQ-60" style="edgeStyle=orthogonalEdgeStyle;rounded=0;orthogonalLoop=1;jettySize=auto;html=1;" edge="1" parent="1" source="9SCNQz-Z5Cvlj46xDFkQ-59" target="9SCNQz-Z5Cvlj46xDFkQ-58">
          <mxGeometry relative="1" as="geometry" />
        </mxCell>
        <mxCell id="9SCNQz-Z5Cvlj46xDFkQ-59" value="" style="image;aspect=fixed;html=1;points=[];align=center;fontSize=12;image=img/lib/azure2/app_services/App_Services.svg;" vertex="1" parent="1">
          <mxGeometry x="1650" y="604" width="68" height="68" as="geometry" />
        </mxCell>
        <mxCell id="9SCNQz-Z5Cvlj46xDFkQ-62" value="UDR" style="text;html=1;align=center;verticalAlign=middle;resizable=0;points=[];autosize=1;strokeColor=none;fillColor=none;fontSize=15;" vertex="1" parent="1">
          <mxGeometry x="1220" y="695" width="60" height="30" as="geometry" />
        </mxCell>
        <mxCell id="9SCNQz-Z5Cvlj46xDFkQ-63" value="&lt;font style=&quot;font-size: 17px;&quot;&gt;&lt;b&gt;Spoke&lt;/b&gt;&lt;/font&gt;" style="text;html=1;align=center;verticalAlign=middle;resizable=0;points=[];autosize=1;strokeColor=none;fillColor=none;" vertex="1" parent="1">
          <mxGeometry x="1562" y="428" width="70" height="30" as="geometry" />
        </mxCell>
        <mxCell id="9SCNQz-Z5Cvlj46xDFkQ-64" value="" style="image;aspect=fixed;html=1;points=[];align=center;fontSize=12;image=img/lib/azure2/databases/SQL_Server.svg;" vertex="1" parent="1">
          <mxGeometry x="1507.5" y="791.46" width="56.5" height="56.5" as="geometry" />
        </mxCell>
        <mxCell id="9SCNQz-Z5Cvlj46xDFkQ-65" value="" style="image;aspect=fixed;html=1;points=[];align=center;fontSize=12;image=img/lib/azure2/other/Private_Endpoints.svg;" vertex="1" parent="1">
          <mxGeometry x="1545" y="830" width="40" height="38.05" as="geometry" />
        </mxCell>
        <mxCell id="9SCNQz-Z5Cvlj46xDFkQ-66" value="" style="image;aspect=fixed;html=1;points=[];align=center;fontSize=12;image=img/lib/azure2/storage/Storage_Accounts.svg;" vertex="1" parent="1">
          <mxGeometry x="1620" y="803.1100000000001" width="41.5" height="33.2" as="geometry" />
        </mxCell>
        <mxCell id="9SCNQz-Z5Cvlj46xDFkQ-67" value="" style="image;aspect=fixed;html=1;points=[];align=center;fontSize=12;image=img/lib/azure2/other/Private_Endpoints.svg;" vertex="1" parent="1">
          <mxGeometry x="1640" y="836.3100000000001" width="40" height="38.05" as="geometry" />
        </mxCell>
        <mxCell id="9SCNQz-Z5Cvlj46xDFkQ-69" value="" style="image;aspect=fixed;html=1;points=[];align=center;fontSize=12;image=img/lib/azure2/other/Private_Endpoints.svg;" vertex="1" parent="1">
          <mxGeometry x="1580" y="910.97" width="40" height="38.05" as="geometry" />
        </mxCell>
        <mxCell id="9SCNQz-Z5Cvlj46xDFkQ-70" value="" style="image;aspect=fixed;html=1;points=[];align=center;fontSize=12;image=img/lib/azure2/security/Key_Vaults.svg;" vertex="1" parent="1">
          <mxGeometry x="1542" y="889.98" width="38" height="38" as="geometry" />
        </mxCell>
        <mxCell id="9SCNQz-Z5Cvlj46xDFkQ-71" value="" style="image;sketch=0;aspect=fixed;html=1;points=[];align=center;fontSize=12;image=img/lib/mscae/Managed_Identities.svg;" vertex="1" parent="1">
          <mxGeometry x="1438.36" y="900" width="38" height="50" as="geometry" />
        </mxCell>
        <mxCell id="9SCNQz-Z5Cvlj46xDFkQ-73" value="" style="image;sketch=0;aspect=fixed;html=1;points=[];align=center;fontSize=12;image=img/lib/mscae/Managed_Identities.svg;" vertex="1" parent="1">
          <mxGeometry x="1430" y="695" width="38" height="50" as="geometry" />
        </mxCell>
        <mxCell id="9SCNQz-Z5Cvlj46xDFkQ-399" style="edgeStyle=orthogonalEdgeStyle;rounded=0;orthogonalLoop=1;jettySize=auto;html=1;entryX=0.5;entryY=0;entryDx=0;entryDy=0;" edge="1" parent="1" source="9SCNQz-Z5Cvlj46xDFkQ-75" target="9SCNQz-Z5Cvlj46xDFkQ-5">
          <mxGeometry relative="1" as="geometry">
            <mxPoint x="1120.4" y="905" as="targetPoint" />
            <Array as="points">
              <mxPoint x="809" y="960" />
              <mxPoint x="1000" y="960" />
              <mxPoint x="1000" y="880" />
            </Array>
          </mxGeometry>
        </mxCell>
        <mxCell id="9SCNQz-Z5Cvlj46xDFkQ-75" value="" style="image;aspect=fixed;html=1;points=[];align=center;fontSize=12;image=img/lib/azure2/containers/Kubernetes_Services.svg;" vertex="1" parent="1">
          <mxGeometry x="781.0699999999999" y="990" width="56.67" height="50" as="geometry" />
        </mxCell>
        <mxCell id="9SCNQz-Z5Cvlj46xDFkQ-78" style="edgeStyle=orthogonalEdgeStyle;rounded=0;orthogonalLoop=1;jettySize=auto;html=1;entryX=0;entryY=0.5;entryDx=0;entryDy=0;" edge="1" parent="1" source="9SCNQz-Z5Cvlj46xDFkQ-77" target="9SCNQz-Z5Cvlj46xDFkQ-5">
          <mxGeometry relative="1" as="geometry" />
        </mxCell>
        <mxCell id="9SCNQz-Z5Cvlj46xDFkQ-77" value="" style="image;aspect=fixed;html=1;points=[];align=center;fontSize=12;image=img/lib/azure2/networking/Front_Doors.svg;" vertex="1" parent="1">
          <mxGeometry x="770" y="1280" width="68" height="60" as="geometry" />
        </mxCell>
        <mxCell id="9SCNQz-Z5Cvlj46xDFkQ-367" value="" style="rounded=0;whiteSpace=wrap;html=1;" vertex="1" parent="1">
          <mxGeometry x="1340" y="1260" width="540" height="500" as="geometry" />
        </mxCell>
        <mxCell id="9SCNQz-Z5Cvlj46xDFkQ-368" value="" style="image;aspect=fixed;html=1;points=[];align=center;fontSize=12;image=img/lib/azure2/networking/Virtual_Networks.svg;" vertex="1" parent="1">
          <mxGeometry x="1340" y="1260" width="50" height="29.85" as="geometry" />
        </mxCell>
        <mxCell id="9SCNQz-Z5Cvlj46xDFkQ-369" value="" style="rounded=0;whiteSpace=wrap;html=1;" vertex="1" parent="1">
          <mxGeometry x="1450" y="1315" width="340" height="185" as="geometry" />
        </mxCell>
        <mxCell id="9SCNQz-Z5Cvlj46xDFkQ-370" value="" style="image;aspect=fixed;html=1;points=[];align=center;fontSize=12;image=img/lib/azure2/networking/Subnet.svg;" vertex="1" parent="1">
          <mxGeometry x="1450" y="1317.24" width="54.71" height="32.76" as="geometry" />
        </mxCell>
        <mxCell id="9SCNQz-Z5Cvlj46xDFkQ-371" value="" style="rounded=0;whiteSpace=wrap;html=1;" vertex="1" parent="1">
          <mxGeometry x="1450" y="1530" width="340" height="185" as="geometry" />
        </mxCell>
        <mxCell id="9SCNQz-Z5Cvlj46xDFkQ-372" value="" style="image;aspect=fixed;html=1;points=[];align=center;fontSize=12;image=img/lib/azure2/networking/Subnet.svg;" vertex="1" parent="1">
          <mxGeometry x="1450" y="1540" width="54.71" height="32.76" as="geometry" />
        </mxCell>
        <mxCell id="9SCNQz-Z5Cvlj46xDFkQ-373" value="" style="image;aspect=fixed;html=1;points=[];align=center;fontSize=12;image=img/lib/azure2/app_services/App_Service_Plans.svg;" vertex="1" parent="1">
          <mxGeometry x="1520" y="1368" width="64" height="64" as="geometry" />
        </mxCell>
        <mxCell id="9SCNQz-Z5Cvlj46xDFkQ-374" style="edgeStyle=orthogonalEdgeStyle;rounded=0;orthogonalLoop=1;jettySize=auto;html=1;" edge="1" parent="1" source="9SCNQz-Z5Cvlj46xDFkQ-375" target="9SCNQz-Z5Cvlj46xDFkQ-373">
          <mxGeometry relative="1" as="geometry" />
        </mxCell>
        <mxCell id="9SCNQz-Z5Cvlj46xDFkQ-375" value="" style="image;aspect=fixed;html=1;points=[];align=center;fontSize=12;image=img/lib/azure2/app_services/App_Services.svg;" vertex="1" parent="1">
          <mxGeometry x="1670" y="1364" width="68" height="68" as="geometry" />
        </mxCell>
        <mxCell id="9SCNQz-Z5Cvlj46xDFkQ-376" value="" style="image;aspect=fixed;html=1;points=[];align=center;fontSize=12;image=img/lib/azure2/databases/SQL_Server.svg;" vertex="1" parent="1">
          <mxGeometry x="1527.5" y="1551.46" width="56.5" height="56.5" as="geometry" />
        </mxCell>
        <mxCell id="9SCNQz-Z5Cvlj46xDFkQ-377" value="" style="image;aspect=fixed;html=1;points=[];align=center;fontSize=12;image=img/lib/azure2/other/Private_Endpoints.svg;" vertex="1" parent="1">
          <mxGeometry x="1565" y="1590" width="40" height="38.05" as="geometry" />
        </mxCell>
        <mxCell id="9SCNQz-Z5Cvlj46xDFkQ-378" value="" style="image;aspect=fixed;html=1;points=[];align=center;fontSize=12;image=img/lib/azure2/storage/Storage_Accounts.svg;" vertex="1" parent="1">
          <mxGeometry x="1640" y="1563.1100000000001" width="41.5" height="33.2" as="geometry" />
        </mxCell>
        <mxCell id="9SCNQz-Z5Cvlj46xDFkQ-379" value="" style="image;aspect=fixed;html=1;points=[];align=center;fontSize=12;image=img/lib/azure2/other/Private_Endpoints.svg;" vertex="1" parent="1">
          <mxGeometry x="1660" y="1596.31" width="40" height="38.05" as="geometry" />
        </mxCell>
        <mxCell id="9SCNQz-Z5Cvlj46xDFkQ-380" value="" style="image;aspect=fixed;html=1;points=[];align=center;fontSize=12;image=img/lib/azure2/other/Private_Endpoints.svg;" vertex="1" parent="1">
          <mxGeometry x="1600" y="1670.97" width="40" height="38.05" as="geometry" />
        </mxCell>
        <mxCell id="9SCNQz-Z5Cvlj46xDFkQ-381" value="" style="image;aspect=fixed;html=1;points=[];align=center;fontSize=12;image=img/lib/azure2/security/Key_Vaults.svg;" vertex="1" parent="1">
          <mxGeometry x="1562" y="1649.98" width="38" height="38" as="geometry" />
        </mxCell>
        <mxCell id="9SCNQz-Z5Cvlj46xDFkQ-382" value="" style="image;sketch=0;aspect=fixed;html=1;points=[];align=center;fontSize=12;image=img/lib/mscae/Managed_Identities.svg;" vertex="1" parent="1">
          <mxGeometry x="1458.36" y="1660" width="38" height="50" as="geometry" />
        </mxCell>
        <mxCell id="9SCNQz-Z5Cvlj46xDFkQ-383" value="" style="image;sketch=0;aspect=fixed;html=1;points=[];align=center;fontSize=12;image=img/lib/mscae/Managed_Identities.svg;" vertex="1" parent="1">
          <mxGeometry x="1450" y="1455" width="38" height="50" as="geometry" />
        </mxCell>
        <mxCell id="9SCNQz-Z5Cvlj46xDFkQ-32" value="&lt;font size=&quot;1&quot; style=&quot;&quot;&gt;&lt;b style=&quot;font-size: 17px;&quot;&gt;HUB&lt;/b&gt;&lt;/font&gt;" style="text;html=1;align=center;verticalAlign=middle;resizable=0;points=[];autosize=1;strokeColor=none;fillColor=none;" vertex="1" parent="1">
          <mxGeometry x="1130" y="782.76" width="60" height="30" as="geometry" />
        </mxCell>
        <mxCell id="9SCNQz-Z5Cvlj46xDFkQ-400" value="&lt;font style=&quot;font-size: 17px;&quot;&gt;&lt;b&gt;Spoke&lt;/b&gt;&lt;/font&gt;" style="text;html=1;align=center;verticalAlign=middle;resizable=0;points=[];autosize=1;strokeColor=none;fillColor=none;" vertex="1" parent="1">
          <mxGeometry x="1600" y="1200" width="70" height="30" as="geometry" />
        </mxCell>
        <mxCell id="9SCNQz-Z5Cvlj46xDFkQ-401" style="edgeStyle=orthogonalEdgeStyle;rounded=0;orthogonalLoop=1;jettySize=auto;html=1;entryX=0;entryY=0.475;entryDx=0;entryDy=0;entryPerimeter=0;" edge="1" parent="1" source="9SCNQz-Z5Cvlj46xDFkQ-5" target="9SCNQz-Z5Cvlj46xDFkQ-44">
          <mxGeometry relative="1" as="geometry" />
        </mxCell>
        <mxCell id="9SCNQz-Z5Cvlj46xDFkQ-403" value="&lt;font style=&quot;font-size: 16px;&quot;&gt;&lt;b&gt;Shared Resources&lt;/b&gt;&lt;/font&gt;" style="text;html=1;align=center;verticalAlign=middle;resizable=0;points=[];autosize=1;strokeColor=none;fillColor=none;" vertex="1" parent="1">
          <mxGeometry x="724" y="440" width="160" height="30" as="geometry" />
        </mxCell>
        <mxCell id="9SCNQz-Z5Cvlj46xDFkQ-404" value="" style="image;aspect=fixed;html=1;points=[];align=center;fontSize=12;image=img/lib/azure2/networking/DNS_Zones.svg;" vertex="1" parent="1">
          <mxGeometry x="786.78" y="1478" width="52" height="52" as="geometry" />
        </mxCell>
        <mxCell id="9SCNQz-Z5Cvlj46xDFkQ-406" style="edgeStyle=orthogonalEdgeStyle;rounded=0;orthogonalLoop=1;jettySize=auto;html=1;entryX=0.642;entryY=0.963;entryDx=0;entryDy=0;entryPerimeter=0;" edge="1" parent="1" source="9SCNQz-Z5Cvlj46xDFkQ-404" target="9SCNQz-Z5Cvlj46xDFkQ-77">
          <mxGeometry relative="1" as="geometry" />
        </mxCell>
      </root>
    </mxGraphModel>
  </diagram>
  <diagram id="z2ugSw_DYEm6hFoqyX6q" name="Page-2">
    <mxGraphModel dx="794" dy="477" grid="1" gridSize="10" guides="1" tooltips="1" connect="1" arrows="1" fold="1" page="1" pageScale="1" pageWidth="850" pageHeight="1100" math="0" shadow="0">
      <root>
        <mxCell id="0" />
        <mxCell id="1" parent="0" />
      </root>
    </mxGraphModel>
  </diagram>
</mxfile>
